<?xml version="1.0" standalone="no"?>
<!DOCTYPE svg PUBLIC "-//W3C//DTD SVG 20010904//EN"
 "http://www.w3.org/TR/2001/REC-SVG-20010904/DTD/svg10.dtd">
<svg version="1.0" xmlns="http://www.w3.org/2000/svg"
 width="512.000000pt" height="512.000000pt" viewBox="0 0 512.000000 512.000000"
 preserveAspectRatio="xMidYMid meet">
<metadata>
Created by potrace 1.11, written by Peter Selinger 2001-2013
</metadata>
<g transform="translate(0.000000,512.000000) scale(0.100000,-0.100000)"
fill="#000000" stroke="none">
<path d="M2580 4444 c-19 -8 -42 -22 -51 -30 -10 -9 -151 -222 -315 -475
l-298 -459 -340 0 c-336 0 -342 -1 -391 -24 -62 -28 -116 -87 -141 -152 -18
-47 -19 -92 -19 -1040 l0 -990 30 -59 c19 -37 46 -72 73 -92 88 -67 10 -64
1458 -61 l1309 3 45 23 c81 43 127 100 148 184 7 26 12 118 12 206 l0 159 40
7 c21 3 49 16 61 29 43 46 52 78 57 199 4 97 7 118 21 121 14 4 14 5 -1 6 -13
1 -18 10 -18 31 0 22 4 28 15 24 8 -4 15 -1 15 5 0 6 -7 11 -15 11 -23 0 -20
67 3 73 16 4 16 5 0 6 -12 1 -18 9 -18 25 0 15 7 26 18 29 14 4 14 5 1 6 -13
1 -17 18 -21 90 -4 63 -11 99 -25 123 -23 40 -77 78 -109 78 -24 0 -24 2 -24
103 0 121 -18 195 -61 249 l-29 37 0 160 c0 185 -11 249 -52 310 l-30 45 20
35 c11 20 23 50 26 67 10 44 -11 116 -42 152 -28 32 -1152 764 -1209 789 -42
17 -99 16 -143 -3z m10 -230 c-18 -21 -24 -10 -9 18 8 14 14 18 17 10 2 -7 -2
-19 -8 -28z m35 -14 c4 -12 -3 -32 -18 -55 -21 -31 -26 -33 -42 -21 -17 12
-17 14 3 34 12 12 23 25 23 30 6 35 24 42 34 12z m-75 -46 c-18 -21 -24 -10
-9 18 8 14 14 18 17 10 2 -7 -2 -19 -8 -28z m130 20 c0 -3 -10 -23 -22 -44
-23 -39 -41 -50 -53 -30 -10 16 34 80 56 80 10 0 19 -2 19 -6z m40 -8 c0 -16
-28 -42 -36 -33 -8 7 14 47 26 47 6 0 10 -6 10 -14z m-200 -55 c0 -5 -7 -14
-15 -21 -16 -14 -18 -10 -9 14 6 17 24 22 24 7z m38 -13 c8 -8 8 -17 1 -30 -8
-15 -14 -16 -30 -8 -15 9 -17 15 -9 30 12 23 21 25 38 8z m122 8 c0 -16 -14
-36 -26 -36 -16 0 -16 2 -8 24 5 14 34 24 34 12z m-70 -46 c0 -14 -42 -60 -50
-55 -4 3 -6 -3 -3 -13 6 -25 -20 -47 -35 -29 -16 18 51 119 73 111 8 -4 15
-10 15 -14z m-140 -30 c-6 -11 -15 -20 -21 -20 -6 0 -6 7 1 20 6 11 15 20 21
20 6 0 6 -7 -1 -20z m70 13 c0 -5 -10 -20 -23 -35 -16 -20 -26 -25 -36 -19
-24 15 2 61 34 61 14 0 25 -3 25 -7z m100 -1 c0 -16 -27 -45 -39 -41 -8 3 -7
11 4 27 16 22 35 30 35 14z m-50 -74 c0 -22 -17 -41 -29 -34 -8 5 -8 13 -1 27
12 21 30 26 30 7z m-128 -34 c5 -3 -1 -19 -13 -35 -17 -24 -24 -28 -35 -18 -8
7 -12 20 -9 30 5 15 3 17 -11 12 -11 -4 -15 -2 -11 4 7 10 65 15 79 7z m58
-11 c0 -3 -14 -29 -32 -56 -28 -44 -33 -48 -44 -32 -16 22 2 55 25 48 13 -4
14 -3 2 5 -12 9 -12 13 -2 26 13 16 51 22 51 9z m40 -13 c0 -5 -11 -17 -25
-26 -14 -9 -29 -33 -35 -56 -6 -21 -16 -38 -21 -36 -17 6 -14 17 21 74 29 48
60 71 60 44z m-246 -120 c-16 -23 -30 -37 -32 -31 -4 13 47 85 55 78 2 -3 -8
-24 -23 -47z m72 36 c3 -8 -6 -32 -20 -53 -14 -21 -26 -42 -26 -48 0 -5 16 14
35 42 24 36 40 50 50 47 18 -7 18 -9 4 -35 -5 -11 -15 -17 -21 -13 -5 4 -14 0
-19 -7 -5 -8 -3 -16 4 -21 9 -5 8 -12 -5 -24 -15 -16 -19 -15 -52 5 -20 13
-36 25 -36 28 0 11 62 93 71 93 5 0 12 -6 15 -14z m68 -68 c-3 -13 -15 -35
-26 -50 -22 -31 -45 -38 -33 -10 5 9 8 25 9 34 0 9 4 14 8 12 4 -3 12 5 18 16
15 28 33 26 24 -2z m1281 -127 c67 -38 96 -132 60 -201 -14 -27 -82 -88 -89
-79 -1 2 -13 21 -25 42 -12 20 -24 37 -26 37 -2 0 -13 -16 -24 -36 -12 -20
-24 -34 -27 -31 -4 3 3 18 13 34 33 47 35 53 20 53 -8 0 -27 -19 -41 -42 -14
-24 -25 -36 -25 -28 0 8 8 26 19 40 11 14 20 31 20 38 0 23 -18 12 -39 -24
-12 -20 -24 -34 -27 -31 -4 3 3 19 15 35 12 17 21 33 21 36 0 3 -18 6 -40 6
-35 0 -40 3 -40 23 1 36 36 104 64 123 55 35 114 37 171 5z m-77 -260 c-7 -12
-16 -21 -21 -21 -4 0 0 11 9 25 20 30 31 26 12 -4z m-1808 1 c0 -5 -8 -16 -18
-26 -17 -15 -53 -16 -351 -14 l-332 3 21 23 c21 22 21 22 350 22 182 0 330 -4
330 -8z m2070 -186 c13 -62 6 -72 -9 -12 -6 24 -23 58 -37 75 -17 20 -24 37
-19 49 5 14 11 10 30 -23 13 -21 29 -61 35 -89z m-2130 97 c0 -5 -7 -16 -14
-25 -12 -17 -41 -18 -341 -18 -294 0 -327 2 -321 16 3 9 6 20 6 25 0 5 138 9
335 9 184 0 335 -3 335 -7z m2104 -116 c13 -29 27 -70 30 -92 5 -39 5 -39 -11
9 -9 31 -31 64 -60 93 -26 27 -42 51 -39 59 10 25 53 -12 80 -69z m-114 13
c69 -18 130 -102 143 -195 l6 -40 -14 45 c-20 61 -65 113 -122 142 l-48 23
-1315 0 -1315 0 -3 21 -3 21 1318 -4 c783 -2 1332 -8 1353 -13z m-12 -86 c37
-6 105 -62 128 -107 22 -41 8 -47 -22 -9 -14 18 -45 43 -67 55 l-42 22 -1304
5 -1304 5 -14 21 -14 21 1303 -4 c717 -2 1318 -6 1336 -9z m-8 -89 c19 -3 42
-11 51 -18 13 -9 -240 -12 -1230 -10 -685 1 -1265 5 -1287 8 -23 3 -49 11 -58
18 -13 10 250 12 1236 10 689 -2 1269 -5 1288 -8z m-110 -797 c47 -18 92 -61
116 -112 100 -215 -140 -417 -336 -281 -105 73 -121 245 -32 338 64 67 161 89
252 55z"/>
<path d="M2340 3779 c0 -5 5 -7 10 -4 6 3 10 8 10 11 0 2 -4 4 -10 4 -5 0 -10
-5 -10 -11z"/>
</g>
</svg>
